<svg xmlns="http://www.w3.org/2000/svg" viewBox="0 0 20 20">
	<symbol id="mail" viewBox="0 0 77.2 64.15">
		<path class="mail-1" d="M76.76,19.54c-2.37,1.77-4.65,3.52-7,5.21-8.65,6.3-17.15,12.81-26.68,17.82a8.64,8.64,0,0,1-9-.09,138.39,138.39,0,0,1-12.24-7.57C14.76,29.91,7.71,24.82.19,19.46c0,12.84,0,25.25,0,37.65,0,4.71,2.2,7,7,7q31.41.06,62.82,0c4.85,0,7.17-2.39,7.17-7.22q0-17.13,0-34.26A5.21,5.21,0,0,0,76.76,19.54Z"/><path class="mail-1" d="M1.47,10.46c10,7.73,19.94,15.37,30.58,22.17,4.63,3,8.64,2.89,13.26,0C56,26,66,18.32,76,10.62a3,3,0,0,0,1.2-2.54c.22-5.4-2.13-8-7.59-8C59.3,0,49,0,38.68,0H9A22.9,22.9,0,0,0,5.07.24,5.35,5.35,0,0,0,.39,4.71C.11,6.58-.72,8.76,1.47,10.46Z"/>
	</symbol>
</svg>